<svg width="32" height="32" viewBox="0 0 32 32" fill="none" xmlns="http://www.w3.org/2000/svg">
<g clip-path="url(#clip0_27_9)">
<path d="M26 0H6C2.68629 0 0 2.68629 0 6V26C0 29.3137 2.68629 32 6 32H26C29.3137 32 32 29.3137 32 26V6C32 2.68629 29.3137 0 26 0Z" fill="#0D0D1A"/>
<path d="M14.9063 27.2693V6H17.9076V27.2693H14.9063ZM8 8.40726V6L24.8139 6V8.40726H8Z" fill="white"/>
<path d="M8 23.6521L8 10.0875H16.8448C18.1276 10.0875 19.2759 10.1628 20.2897 10.3135C21.3241 10.4506 22.2035 10.6698 22.9276 10.9712C23.6517 11.259 24.2 11.6357 24.5724 12.1016C24.9655 12.5538 25.1621 13.095 25.1621 13.7252C25.1621 14.2596 24.9862 14.7255 24.6345 15.1228C24.3034 15.5202 23.7759 15.8421 23.0517 16.0888C22.3276 16.3354 21.3655 16.4998 20.1655 16.582V16.9314C22.1517 17.0136 23.6207 17.3288 24.5724 17.8768C25.5241 18.4249 26 19.1648 26 20.0965C26 20.8912 25.6793 21.5489 25.0379 22.0695C24.3966 22.5902 23.4552 22.9875 22.2138 23.2616C20.9724 23.5219 19.4414 23.6521 17.6207 23.6521H8ZM10.8846 21.0213H18.3819C19.6439 21.0213 20.575 20.9049 21.175 20.672C21.775 20.4253 22.075 20.0417 22.075 19.521C22.075 18.9456 21.7129 18.514 20.9888 18.2262C20.2646 17.9385 19.1577 17.7946 17.6681 17.7946H10.8846V21.0213ZM10.8846 15.7805H16.9853C18.4543 15.7805 19.5301 15.6503 20.2129 15.39C20.8956 15.116 21.237 14.7118 21.237 14.1774C21.237 13.6567 20.9163 13.2799 20.275 13.047C19.6543 12.8004 18.7025 12.6771 17.4198 12.6771H10.8846V15.7805Z" fill="#6CE7F8"/>
<path d="M14.9158 19.1305V13.7047H17.9V19.1305H14.9158Z" fill="white"/>
<path d="M14.5455 13.5027V12.6845H17.9818C18.1174 12.6845 18.2273 12.7944 18.2273 12.93V13.5027H14.5455Z" fill="#0D0D1A"/>
<path d="M14.5455 24.4582V23.64H17.9818C18.1174 23.64 18.2273 23.7499 18.2273 23.8855V24.4582H14.5455Z" fill="#0D0D1A"/>
</g>
<defs>
<clipPath id="clip0_27_9">
<rect width="32" height="32" fill="white"/>
</clipPath>
</defs>
</svg>
